#!OML:ASF H:\Male1\Project 1\Capture day 1\Session 1\Male1.ASF
:FULLY-SPECIFIED
:DEGREES
876
root -20.426 15.1382 -2.5882 0.154641 5.35993 1.86955
lowerback 8.53708 0.0651888 -4.5685
upperback 3.97216 -0.291369 -2.74969
thorax -0.65814 -0.170948 -0.248187
lowerneck -10.9138 -1.26899 -1.21511
upperneck 15.275 -2.56975 6.28315
head 6.54643 -0.792905 1.98569
rclavicle 1.98785e-016 1.59028e-015
rhumerus -44.3547 15.7546 -94.1604
rradius 35.4369
rwrist -21.836
rhand -19.1448 0.309024
rfingers 7.12502
rthumb 7.16541 -29.5497
lclavicle 1.98785e-016 1.59028e-015
lhumerus -45.8211 -4.20485 77.459
lradius 35.2833
lwrist 7.59842
lhand -16.673 11.6105
lfingers 7.12502
lthumb 9.55083 41.3741
rfemur -12.0978 4.14775 13.4111
rtibia 29.3815
rfoot -22.6114 -27.1338
rtoes -22.6868
lfemur 2.9388 -12.3031 -8.34799
ltibia 20.6649
lfoot -21.7603 27.9336
ltoes 9.69133
877
root -20.6258 15.1614 -2.56807 0.154717 5.29113 1.92816
lowerback 8.62474 0.115978 -4.43682
upperback 4.09814 -0.214726 -2.8535
thorax -0.579297 -0.132529 -0.43612
lowerneck -10.9215 -1.30151 -0.992414
upperneck 15.1337 -2.63347 6.21075
head 6.50221 -0.819408 1.91879
rclavicle 7.95139e-015 -3.97569e-014
rhumerus -44.2691 16.0449 -94.5441
rradius 35.3921
rwrist -21.9171
rhand -19.4075 0.128365
rfingers 7.12502
rthumb 6.91176 -29.7388
lclavicle 7.95139e-015 -3.97569e-014
lhumerus -45.4475 -4.25941 77.2109
lradius 35.464
lwrist 7.11879
lhand -18.5579 11.9336
lfingers 7.12502
lthumb 7.73185 41.7722
rfemur -12.1805 4.21757 14.233
rtibia 29.5473
rfoot -22.8642 -27.1902
rtoes -22.3897
lfemur 1.82635 -10.6678 -8.64288
ltibia 23.66
lfoot -21.9541 27.5663
ltoes 8.44911
878
root -20.8213 15.1857 -2.55053 0.326337 5.28569 2.25368
lowerback 8.5483 0.0997269 -4.6387
upperback 4.18238 -0.242941 -2.96085
thorax -0.447633 -0.15085 -0.432142
lowerneck -11.0725 -1.30277 -0.922632
upperneck 15.2416 -2.63093 6.06868
head 6.56006 -0.820982 1.86206
rclavicle 2.52457e-014 2.94201e-014
rhumerus -44.2054 16.5264 -94.8516
rradius 35.429
rwrist -22.0608
rhand -19.5008 0.0662237
rfingers 7.12502
rthumb 6.8217 -29.8039
lclavicle 2.52457e-014 2.94201e-014
lhumerus -45.1707 -3.99486 77.0123
lradius 35.6423
lwrist 7.01432
lhand -19.98 11.9839
lfingers 7.12502
lthumb 6.35914 41.8684
rfemur -12.3776 4.19086 14.7314
rtibia 29.6431
rfoot -23.0175 -27.3447
rtoes -22.4551
lfemur 0.484327 -8.9065 -9.35893
ltibia 26.8913
lfoot -21.7217 27.5556
ltoes 5.70051
879
root -21.0052 15.2044 -2.53259 0.476768 5.22118 2.47885
lowerback 8.46612 0.123544 -4.68869
upperback 4.22178 -0.207805 -3.01927
thorax -0.362103 -0.135129 -0.467826
lowerneck -11.1612 -1.35262 -1.15785
upperneck 15.4196 -2.697 6.24356
head 6.64003 -0.846773 1.95231
rclavicle -1.51076e-014 -3.33958e-014
rhumerus -44.1305 16.9116 -95.0174
rradius 35.3959
rwrist -22.1866
rhand -19.5437 0.132539
rfingers 7.12502
rthumb 6.78028 -29.7389
lclavicle -1.51076e-014 -3.33958e-014
lhumerus -44.9983 -3.96165 77.0269
lradius 35.8018
lwrist 7.44353
lhand -20.1708 12.6819
lfingers 7.12502
lthumb 6.17491 42.5719
rfemur -12.5509 4.33354 15.2854
rtibia 29.6996
rfoot -23.2999 -27.4345
rtoes -21.5512
lfemur -0.796451 -7.12479 -10.1791
ltibia 30.1788
lfoot -22.1199 26.2361
ltoes 6.52446
880
root -21.179 15.2156 -2.51386 0.50856 5.10491 2.42072
lowerback 8.46398 0.160499 -4.42709
upperback 4.24277 -0.138259 -2.99629
thorax -0.342828 -0.0976172 -0.596095
lowerneck -11.1943 -1.42911 -1.49893
upperneck 15.5957 -2.80578 6.56793
head 6.71539 -0.887889 2.1049
rclavicle 1.13307e-014 1.66979e-014
rhumerus -44.1334 17.3146 -95.2178
rradius 35.4164
rwrist -22.2685
rhand -19.4993 0.175339
rfingers 7.12502
rthumb 6.82321 -29.6947
lclavicle 1.13307e-014 1.66979e-014
lhumerus -44.8858 -3.95334 77.0734
lradius 35.8961
lwrist 7.8733
lhand -20.1885 12.6999
lfingers 7.12502
lthumb 6.15782 42.5905
rfemur -12.6396 4.59124 16.138
rtibia 29.7911
rfoot -23.5492 -27.6474
rtoes -20.7284
lfemur -1.91173 -5.23889 -10.8543
ltibia 33.4087
lfoot -22.1278 24.9189
ltoes 6.1571
881
root -21.346 15.228 -2.49104 0.652443 5.05737 2.34218
lowerback 8.29411 0.114404 -4.17058
upperback 4.22295 -0.170096 -2.9368
thorax -0.271001 -0.111527 -0.674973
lowerneck -11.3033 -1.40689 -1.581
upperneck 15.9148 -2.76001 6.45967
head 6.83394 -0.871591 2.08998
rclavicle 2.08724e-014 2.38542e-015
rhumerus -44.2164 17.8017 -95.3911
rradius 35.5554
rwrist -22.2865
rhand -19.3017 0.229914
rfingers 7.12502
rthumb 7.01389 -29.6339
lclavicle 2.08724e-014 2.38542e-015
lhumerus -44.9116 -3.70844 77.1085
lradius 35.8929
lwrist 7.86381
lhand -20.0885 12.73
lfingers 7.12502
lthumb 6.25437 42.6177
rfemur -12.8482 4.63917 16.9654
rtibia 29.9178
rfoot -23.6518 -27.8556
rtoes -20.6194
lfemur -3.11639 -3.39869 -11.6111
ltibia 36.5532
lfoot -22.096 23.05
ltoes 5.17156
